<mxfile host="app.diagrams.net" modified="2024-01-06T00:59:32.401Z" agent="Mozilla/5.0 (Windows NT 10.0; Win64; x64; rv:121.0) Gecko/20100101 Firefox/121.0" etag="pzUaVihHGTqNtP6hNELY" version="22.1.16" type="device">
  <diagram name="Página-1" id="Dk4c0fEfs0IA9ifrQuwE">
    <mxGraphModel dx="1194" dy="716" grid="1" gridSize="10" guides="1" tooltips="1" connect="1" arrows="1" fold="1" page="1" pageScale="1" pageWidth="827" pageHeight="1169" math="0" shadow="0">
      <root>
        <mxCell id="0" />
        <mxCell id="1" parent="0" />
        <mxCell id="o4Y73pE1BpLqy18uyFmv-7" value="" style="shape=mxgraph.cisco.misc.bridge;html=1;pointerEvents=1;dashed=0;strokeWidth=2;verticalLabelPosition=bottom;verticalAlign=top;align=center;outlineConnect=0;fillColor=#bac8d3;strokeColor=#23445d;" vertex="1" parent="1">
          <mxGeometry x="130" y="220" width="74" height="56" as="geometry" />
        </mxCell>
        <mxCell id="o4Y73pE1BpLqy18uyFmv-47" value="" style="endArrow=none;html=1;rounded=0;strokeWidth=4;" edge="1" parent="1">
          <mxGeometry width="50" height="50" relative="1" as="geometry">
            <mxPoint x="210" y="220" as="sourcePoint" />
            <mxPoint x="270" y="200" as="targetPoint" />
          </mxGeometry>
        </mxCell>
        <mxCell id="o4Y73pE1BpLqy18uyFmv-48" value="" style="endArrow=none;html=1;rounded=0;strokeWidth=4;" edge="1" parent="1">
          <mxGeometry width="50" height="50" relative="1" as="geometry">
            <mxPoint x="210" y="240" as="sourcePoint" />
            <mxPoint x="280" y="230" as="targetPoint" />
          </mxGeometry>
        </mxCell>
        <mxCell id="o4Y73pE1BpLqy18uyFmv-49" value="" style="endArrow=none;html=1;rounded=0;strokeWidth=4;" edge="1" parent="1">
          <mxGeometry width="50" height="50" relative="1" as="geometry">
            <mxPoint x="210" y="260" as="sourcePoint" />
            <mxPoint x="280" y="260" as="targetPoint" />
          </mxGeometry>
        </mxCell>
        <mxCell id="o4Y73pE1BpLqy18uyFmv-50" value="" style="endArrow=none;html=1;rounded=0;strokeWidth=4;" edge="1" parent="1">
          <mxGeometry width="50" height="50" relative="1" as="geometry">
            <mxPoint x="204" y="276" as="sourcePoint" />
            <mxPoint x="270" y="290" as="targetPoint" />
          </mxGeometry>
        </mxCell>
        <mxCell id="o4Y73pE1BpLqy18uyFmv-51" value="" style="endArrow=none;html=1;rounded=0;strokeWidth=4;" edge="1" parent="1">
          <mxGeometry width="50" height="50" relative="1" as="geometry">
            <mxPoint x="60" y="210" as="sourcePoint" />
            <mxPoint x="125" y="225" as="targetPoint" />
          </mxGeometry>
        </mxCell>
        <mxCell id="o4Y73pE1BpLqy18uyFmv-52" value="" style="endArrow=none;html=1;rounded=0;strokeWidth=4;" edge="1" parent="1">
          <mxGeometry width="50" height="50" relative="1" as="geometry">
            <mxPoint x="60" y="240" as="sourcePoint" />
            <mxPoint x="130" y="240" as="targetPoint" />
          </mxGeometry>
        </mxCell>
        <mxCell id="o4Y73pE1BpLqy18uyFmv-53" value="" style="endArrow=none;html=1;rounded=0;strokeWidth=4;" edge="1" parent="1">
          <mxGeometry width="50" height="50" relative="1" as="geometry">
            <mxPoint x="60" y="265" as="sourcePoint" />
            <mxPoint x="130" y="265" as="targetPoint" />
          </mxGeometry>
        </mxCell>
        <mxCell id="o4Y73pE1BpLqy18uyFmv-54" value="" style="endArrow=none;html=1;rounded=0;strokeWidth=4;" edge="1" parent="1">
          <mxGeometry width="50" height="50" relative="1" as="geometry">
            <mxPoint x="60" y="290" as="sourcePoint" />
            <mxPoint x="128" y="280" as="targetPoint" />
          </mxGeometry>
        </mxCell>
        <mxCell id="o4Y73pE1BpLqy18uyFmv-55" value="1" style="text;html=1;strokeColor=none;fillColor=none;align=center;verticalAlign=middle;whiteSpace=wrap;rounded=0;fontSize=16;fontStyle=1" vertex="1" parent="1">
          <mxGeometry y="190" width="60" height="30" as="geometry" />
        </mxCell>
        <mxCell id="o4Y73pE1BpLqy18uyFmv-56" value="2" style="text;html=1;strokeColor=none;fillColor=none;align=center;verticalAlign=middle;whiteSpace=wrap;rounded=0;fontSize=16;fontStyle=1" vertex="1" parent="1">
          <mxGeometry x="1" y="225" width="60" height="30" as="geometry" />
        </mxCell>
        <mxCell id="o4Y73pE1BpLqy18uyFmv-57" value="3" style="text;html=1;strokeColor=none;fillColor=none;align=center;verticalAlign=middle;whiteSpace=wrap;rounded=0;fontSize=16;fontStyle=1" vertex="1" parent="1">
          <mxGeometry x="1" y="250" width="60" height="30" as="geometry" />
        </mxCell>
        <mxCell id="o4Y73pE1BpLqy18uyFmv-58" value="4" style="text;html=1;strokeColor=none;fillColor=none;align=center;verticalAlign=middle;whiteSpace=wrap;rounded=0;fontSize=16;fontStyle=1" vertex="1" parent="1">
          <mxGeometry x="2" y="278" width="60" height="30" as="geometry" />
        </mxCell>
        <mxCell id="o4Y73pE1BpLqy18uyFmv-59" value="5" style="text;html=1;strokeColor=none;fillColor=none;align=center;verticalAlign=middle;whiteSpace=wrap;rounded=0;fontSize=16;fontStyle=1" vertex="1" parent="1">
          <mxGeometry x="276" y="190" width="60" height="30" as="geometry" />
        </mxCell>
        <mxCell id="o4Y73pE1BpLqy18uyFmv-60" value="6" style="text;html=1;strokeColor=none;fillColor=none;align=center;verticalAlign=middle;whiteSpace=wrap;rounded=0;fontSize=16;fontStyle=1" vertex="1" parent="1">
          <mxGeometry x="276" y="215" width="60" height="30" as="geometry" />
        </mxCell>
        <mxCell id="o4Y73pE1BpLqy18uyFmv-61" value="7" style="text;html=1;strokeColor=none;fillColor=none;align=center;verticalAlign=middle;whiteSpace=wrap;rounded=0;fontSize=16;fontStyle=1" vertex="1" parent="1">
          <mxGeometry x="277" y="244" width="60" height="30" as="geometry" />
        </mxCell>
        <mxCell id="o4Y73pE1BpLqy18uyFmv-62" value="8" style="text;html=1;strokeColor=none;fillColor=none;align=center;verticalAlign=middle;whiteSpace=wrap;rounded=0;fontSize=16;fontStyle=1" vertex="1" parent="1">
          <mxGeometry x="275" y="275" width="60" height="30" as="geometry" />
        </mxCell>
        <mxCell id="o4Y73pE1BpLqy18uyFmv-63" value="TABELA DE ENDEREÇOS MAC" style="text;html=1;strokeColor=none;fillColor=none;align=center;verticalAlign=middle;whiteSpace=wrap;rounded=0;fontSize=16;fontStyle=1" vertex="1" parent="1">
          <mxGeometry x="400" y="130" width="250" height="30" as="geometry" />
        </mxCell>
        <mxCell id="o4Y73pE1BpLqy18uyFmv-67" value="000 . 000 . 001 - PORTA 01" style="text;html=1;strokeColor=none;fillColor=none;align=center;verticalAlign=middle;whiteSpace=wrap;rounded=0;fontSize=16;fontStyle=1" vertex="1" parent="1">
          <mxGeometry x="400" y="170" width="220" height="30" as="geometry" />
        </mxCell>
        <mxCell id="o4Y73pE1BpLqy18uyFmv-69" value="000 . 000 . 002 - PORTA 02" style="text;html=1;strokeColor=none;fillColor=none;align=center;verticalAlign=middle;whiteSpace=wrap;rounded=0;fontSize=16;fontStyle=1" vertex="1" parent="1">
          <mxGeometry x="400" y="210" width="220" height="30" as="geometry" />
        </mxCell>
        <mxCell id="o4Y73pE1BpLqy18uyFmv-70" value="000 . 000 . 003 - PORTA 03" style="text;html=1;strokeColor=none;fillColor=none;align=center;verticalAlign=middle;whiteSpace=wrap;rounded=0;fontSize=16;fontStyle=1" vertex="1" parent="1">
          <mxGeometry x="400" y="244" width="220" height="30" as="geometry" />
        </mxCell>
        <mxCell id="o4Y73pE1BpLqy18uyFmv-71" value="" style="endArrow=none;dashed=1;html=1;dashPattern=1 3;strokeWidth=4;rounded=0;" edge="1" parent="1">
          <mxGeometry width="50" height="50" relative="1" as="geometry">
            <mxPoint x="411" y="298.5" as="sourcePoint" />
            <mxPoint x="467" y="299" as="targetPoint" />
          </mxGeometry>
        </mxCell>
        <mxCell id="o4Y73pE1BpLqy18uyFmv-72" value="" style="endArrow=none;dashed=1;html=1;dashPattern=1 3;strokeWidth=4;rounded=0;" edge="1" parent="1">
          <mxGeometry width="50" height="50" relative="1" as="geometry">
            <mxPoint x="491" y="298.5" as="sourcePoint" />
            <mxPoint x="547" y="299" as="targetPoint" />
          </mxGeometry>
        </mxCell>
        <mxCell id="o4Y73pE1BpLqy18uyFmv-73" value="" style="endArrow=none;dashed=1;html=1;dashPattern=1 3;strokeWidth=4;rounded=0;" edge="1" parent="1">
          <mxGeometry width="50" height="50" relative="1" as="geometry">
            <mxPoint x="561" y="298.5" as="sourcePoint" />
            <mxPoint x="617" y="299" as="targetPoint" />
          </mxGeometry>
        </mxCell>
        <mxCell id="o4Y73pE1BpLqy18uyFmv-74" value="000 . 000 . 008 - PORTA 08" style="text;html=1;strokeColor=none;fillColor=none;align=center;verticalAlign=middle;whiteSpace=wrap;rounded=0;fontSize=16;fontStyle=1" vertex="1" parent="1">
          <mxGeometry x="400" y="330" width="220" height="30" as="geometry" />
        </mxCell>
        <mxCell id="o4Y73pE1BpLqy18uyFmv-75" value="BROADCAST : TODAS AS PORTAS" style="text;html=1;strokeColor=none;fillColor=none;align=center;verticalAlign=middle;whiteSpace=wrap;rounded=0;fontSize=16;fontStyle=1" vertex="1" parent="1">
          <mxGeometry x="400" y="369" width="280" height="30" as="geometry" />
        </mxCell>
        <mxCell id="o4Y73pE1BpLqy18uyFmv-76" value="MULTICAST : TODAS AS PORTAS" style="text;html=1;strokeColor=none;fillColor=none;align=center;verticalAlign=middle;whiteSpace=wrap;rounded=0;fontSize=16;fontStyle=1" vertex="1" parent="1">
          <mxGeometry x="400" y="404" width="280" height="30" as="geometry" />
        </mxCell>
      </root>
    </mxGraphModel>
  </diagram>
</mxfile>
